<svg width="512" height="512" viewBox="0 0 512 512" fill="none" xmlns="http://www.w3.org/2000/svg">
<g id="B2">
<g id="Ellipse 1" filter="url(#filter0_iii)">
<circle cx="256" cy="256" r="256" fill="#FFB0B0"/>
</g>
<g id="Main" filter="url(#filter1_d)">
<g id="B">
<path d="M198.35 127.1C229.617 127.1 253.183 131.767 269.05 141.1C285.15 150.2 293.2 166.183 293.2 189.05C293.2 203.75 289.117 216 280.95 225.8C272.783 235.367 261 241.55 245.6 244.35V246.1C256.1 247.733 265.55 250.767 273.95 255.2C282.583 259.633 289.35 265.933 294.25 274.1C299.15 282.267 301.6 292.883 301.6 305.95C301.6 328.583 293.783 346.083 278.15 358.45C262.75 370.817 241.633 377 214.8 377H126.95V127.1H198.35ZM204.65 233.5C226.117 233.5 240.817 230.117 248.75 223.35C256.683 216.35 260.65 206.083 260.65 192.55C260.65 178.783 255.75 168.983 245.95 163.15C236.383 157.083 220.983 154.05 199.75 154.05H158.45V233.5H204.65ZM158.45 259.75V350.4H208.85C231.017 350.4 246.417 346.083 255.05 337.45C263.683 328.817 268 317.5 268 303.5C268 290.433 263.45 279.933 254.35 272C245.483 263.833 229.5 259.75 206.4 259.75H158.45Z" fill="#FF7C7C"/>
<path d="M269.05 141.1L268.036 142.824L268.051 142.833L268.066 142.841L269.05 141.1ZM280.95 225.8L282.471 227.099L282.479 227.089L282.486 227.08L280.95 225.8ZM245.6 244.35L245.242 242.382L243.6 242.681V244.35H245.6ZM245.6 246.1H243.6V247.813L245.293 248.076L245.6 246.1ZM273.95 255.2L273.016 256.969L273.026 256.974L273.036 256.979L273.95 255.2ZM294.25 274.1L295.965 273.071L295.965 273.071L294.25 274.1ZM278.15 358.45L276.909 356.881L276.903 356.886L276.898 356.891L278.15 358.45ZM126.95 377H124.95V379H126.95V377ZM126.95 127.1V125.1H124.95V127.1H126.95ZM248.75 223.35L250.048 224.872L250.061 224.861L250.073 224.85L248.75 223.35ZM245.95 163.15L244.879 164.839L244.903 164.854L244.927 164.869L245.95 163.15ZM158.45 154.05V152.05H156.45V154.05H158.45ZM158.45 233.5H156.45V235.5H158.45V233.5ZM158.45 259.75V257.75H156.45V259.75H158.45ZM158.45 350.4H156.45V352.4H158.45V350.4ZM255.05 337.45L256.464 338.864L256.464 338.864L255.05 337.45ZM254.35 272L252.995 273.471L253.015 273.49L253.036 273.508L254.35 272ZM198.35 129.1C229.48 129.1 252.623 133.757 268.036 142.824L270.064 139.376C253.744 129.776 229.754 125.1 198.35 125.1V129.1ZM268.066 142.841C283.381 151.498 291.2 166.704 291.2 189.05H295.2C295.2 165.662 286.919 148.902 270.034 139.359L268.066 142.841ZM291.2 189.05C291.2 203.357 287.236 215.133 279.414 224.52L282.486 227.08C290.998 216.867 295.2 204.143 295.2 189.05H291.2ZM279.429 224.501C271.629 233.639 260.303 239.644 245.242 242.382L245.958 246.318C261.697 243.456 273.938 237.094 282.471 227.099L279.429 224.501ZM243.6 244.35V246.1H247.6V244.35H243.6ZM245.293 248.076C255.6 249.68 264.834 252.65 273.016 256.969L274.884 253.431C266.266 248.883 256.6 245.787 245.907 244.124L245.293 248.076ZM273.036 256.979C281.345 261.245 287.831 267.289 292.535 275.129L295.965 273.071C290.869 264.578 283.822 258.021 274.864 253.421L273.036 256.979ZM292.535 275.129C297.192 282.89 299.6 293.116 299.6 305.95H303.6C303.6 292.65 301.108 281.643 295.965 273.071L292.535 275.129ZM299.6 305.95C299.6 328.066 291.994 344.949 276.909 356.881L279.391 360.019C295.573 347.218 303.6 329.101 303.6 305.95H299.6ZM276.898 356.891C261.962 368.885 241.34 375 214.8 375V379C241.926 379 263.538 372.749 279.402 360.009L276.898 356.891ZM214.8 375H126.95V379H214.8V375ZM128.95 377V127.1H124.95V377H128.95ZM126.95 129.1H198.35V125.1H126.95V129.1ZM204.65 235.5C226.171 235.5 241.526 232.14 250.048 224.872L247.452 221.828C240.107 228.093 226.063 231.5 204.65 231.5V235.5ZM250.073 224.85C258.551 217.37 262.65 206.486 262.65 192.55H258.65C258.65 205.681 254.816 215.33 247.427 221.85L250.073 224.85ZM262.65 192.55C262.65 178.249 257.513 167.705 246.973 161.431L244.927 164.869C253.987 170.262 258.65 179.317 258.65 192.55H262.65ZM247.021 161.461C236.959 155.08 221.081 152.05 199.75 152.05V156.05C220.885 156.05 235.808 159.086 244.879 164.839L247.021 161.461ZM199.75 152.05H158.45V156.05H199.75V152.05ZM156.45 154.05V233.5H160.45V154.05H156.45ZM158.45 235.5H204.65V231.5H158.45V235.5ZM156.45 259.75V350.4H160.45V259.75H156.45ZM158.45 352.4H208.85V348.4H158.45V352.4ZM208.85 352.4C231.154 352.4 247.248 348.081 256.464 338.864L253.636 336.036C245.586 344.086 230.88 348.4 208.85 348.4V352.4ZM256.464 338.864C265.528 329.8 270 317.946 270 303.5H266C266 317.054 261.838 327.833 253.636 336.036L256.464 338.864ZM270 303.5C270 289.909 265.239 278.84 255.664 270.492L253.036 273.508C261.661 281.027 266 290.958 266 303.5H270ZM255.705 270.529C246.253 261.823 229.599 257.75 206.4 257.75V261.75C229.401 261.75 244.714 265.844 252.995 273.471L255.705 270.529ZM206.4 257.75H158.45V261.75H206.4V257.75Z" fill="#917171"/>
</g>
<g id="r.">
<path d="M402.965 347.7C403.465 347.7 403.998 347.733 404.565 347.8C405.165 347.833 405.682 347.9 406.115 348L405.565 352.05C405.132 351.95 404.648 351.867 404.115 351.8C403.615 351.733 403.132 351.7 402.665 351.7C401.298 351.7 400.015 352.083 398.815 352.85C397.615 353.583 396.648 354.633 395.915 356C395.215 357.333 394.865 358.9 394.865 360.7V375H390.465V348.2H394.065L394.565 353.1H394.765C395.632 351.633 396.748 350.367 398.115 349.3C399.482 348.233 401.098 347.7 402.965 347.7ZM416.415 369.8V375H411.215V369.8H416.415Z" fill="#FF7C7C"/>
<path d="M404.565 347.8L404.448 348.793L404.479 348.797L404.509 348.798L404.565 347.8ZM406.115 348L407.106 348.135L407.228 347.231L406.34 347.026L406.115 348ZM405.565 352.05L405.34 353.024L406.408 353.271L406.556 352.185L405.565 352.05ZM404.115 351.8L403.983 352.791L403.991 352.792L404.115 351.8ZM398.815 352.85L399.336 353.703L399.345 353.698L399.353 353.693L398.815 352.85ZM395.915 356L395.034 355.527L395.029 355.535L395.915 356ZM394.865 375V376H395.865V375H394.865ZM390.465 375H389.465V376H390.465V375ZM390.465 348.2V347.2H389.465V348.2H390.465ZM394.065 348.2L395.06 348.098L394.968 347.2H394.065V348.2ZM394.565 353.1L393.57 353.202L393.662 354.1H394.565V353.1ZM394.765 353.1V354.1H395.335L395.626 353.609L394.765 353.1ZM398.115 349.3L398.73 350.088L398.73 350.088L398.115 349.3ZM402.965 348.7C403.421 348.7 403.915 348.73 404.448 348.793L404.682 346.807C404.082 346.736 403.509 346.7 402.965 346.7V348.7ZM404.509 348.798C405.071 348.83 405.528 348.891 405.89 348.974L406.34 347.026C405.835 346.909 405.259 346.837 404.62 346.802L404.509 348.798ZM405.124 347.865L404.574 351.915L406.556 352.185L407.106 348.135L405.124 347.865ZM405.79 351.076C405.317 350.967 404.799 350.878 404.239 350.808L403.991 352.792C404.497 352.856 404.946 352.933 405.34 353.024L405.79 351.076ZM404.247 350.809C403.707 350.737 403.179 350.7 402.665 350.7V352.7C403.084 352.7 403.523 352.73 403.983 352.791L404.247 350.809ZM402.665 350.7C401.099 350.7 399.63 351.142 398.276 352.007L399.353 353.693C400.4 353.024 401.497 352.7 402.665 352.7V350.7ZM398.293 351.997C396.927 352.832 395.842 354.021 395.034 355.527L396.796 356.473C397.454 355.246 398.303 354.335 399.336 353.703L398.293 351.997ZM395.029 355.535C394.241 357.037 393.865 358.77 393.865 360.7H395.865C395.865 359.03 396.189 357.629 396.8 356.465L395.029 355.535ZM393.865 360.7V375H395.865V360.7H393.865ZM394.865 374H390.465V376H394.865V374ZM391.465 375V348.2H389.465V375H391.465ZM390.465 349.2H394.065V347.2H390.465V349.2ZM393.07 348.302L393.57 353.202L395.56 352.998L395.06 348.098L393.07 348.302ZM394.565 354.1H394.765V352.1H394.565V354.1ZM395.626 353.609C396.428 352.252 397.46 351.079 398.73 350.088L397.5 348.512C396.036 349.654 394.835 351.015 393.904 352.591L395.626 353.609ZM398.73 350.088C399.907 349.17 401.303 348.7 402.965 348.7V346.7C400.893 346.7 399.056 347.297 397.5 348.512L398.73 350.088ZM416.415 369.8H417.415V368.8H416.415V369.8ZM416.415 375V376H417.415V375H416.415ZM411.215 375H410.215V376H411.215V375ZM411.215 369.8V368.8H410.215V369.8H411.215ZM415.415 369.8V375H417.415V369.8H415.415ZM416.415 374H411.215V376H416.415V374ZM412.215 375V369.8H410.215V375H412.215ZM411.215 370.8H416.415V368.8H411.215V370.8Z" fill="#917171"/>
</g>
<g id="2">
<path d="M365.743 223.114C365.743 223.646 365.819 224.064 365.971 224.368C365.971 225.128 365.857 225.584 365.629 225.736C365.477 225.888 365.059 225.964 364.375 225.964L321.055 226.534H315.469C314.937 226.002 314.671 225.508 314.671 225.052V224.254H313.189C312.657 223.722 312.391 223.228 312.391 222.772C312.619 219.884 312.733 217.11 312.733 214.45C312.809 209.51 313.075 205.558 313.531 202.594C313.987 199.554 315.089 196.552 316.837 193.588C318.965 191.232 321.207 189.218 323.563 187.546C325.995 185.798 329.073 183.784 332.797 181.504C336.445 179.376 339.219 177.59 341.119 176.146C343.551 174.322 344.767 171.928 344.767 168.964C344.767 166.152 343.855 164.556 342.031 164.176C339.295 164.176 337.433 165.506 336.445 168.166C335.457 170.826 334.849 174.132 334.621 178.084C330.897 178.692 326.261 178.996 320.713 178.996C319.041 178.996 317.331 178.768 315.583 178.312C315.431 177.552 315.279 177.096 315.127 176.944C315.051 176.716 314.823 176.564 314.443 176.488C314.063 176.336 313.683 176.184 313.303 176.032C312.771 173.372 312.505 170.598 312.505 167.71C312.505 159.426 314.709 152.852 319.117 147.988V148.102C321.017 145.594 323.829 143.77 327.553 142.63C331.353 141.414 335.495 140.806 339.979 140.806C345.527 140.806 350.353 141.908 354.457 144.112C358.561 146.316 361.715 149.432 363.919 153.46C366.199 157.488 367.339 162.124 367.339 167.368L367.453 173.41C367.453 177.362 366.617 180.668 364.945 183.328C363.349 185.988 361.373 188.116 359.017 189.712C356.737 191.232 353.659 192.942 349.783 194.842C346.667 196.362 344.197 197.692 342.373 198.832C340.625 199.896 339.143 201.188 337.927 202.708C337.851 203.088 337.661 203.544 337.357 204.076C337.129 204.608 336.939 205.14 336.787 205.672H340.891L351.265 205.558C355.977 205.406 359.663 205.33 362.323 205.33C362.703 206.166 362.931 206.926 363.007 207.61H364.603C365.439 209.89 365.857 212.246 365.857 214.678L365.743 218.326V222.316V223.114ZM362.551 222.43C362.323 221.594 362.209 220.758 362.209 219.922C362.209 218.402 362.247 217.224 362.323 216.388L362.437 212.74C362.437 209.928 362.133 207.838 361.525 206.47C358.485 206.47 354.305 206.546 348.985 206.698C343.817 206.85 339.827 206.926 337.015 206.926C334.279 206.926 332.911 206.546 332.911 205.786C332.911 203.582 333.519 201.682 334.735 200.086C335.951 198.49 337.357 197.198 338.953 196.21C340.549 195.146 342.753 193.892 345.565 192.448L351.835 189.256C355.635 187.356 358.599 185.038 360.727 182.302C362.931 179.49 364.033 175.88 364.033 171.472C364.033 165.316 363.425 160.148 362.209 155.968C361.069 151.788 358.751 148.406 355.255 145.822C351.759 143.238 346.667 141.946 339.979 141.946C331.087 141.946 324.475 144.226 320.143 148.786C315.811 153.27 313.645 159.578 313.645 167.71C313.645 170.142 313.873 172.612 314.329 175.12L314.443 175.348C316.115 175.576 317.863 175.69 319.687 175.69C322.575 175.69 326.451 175.386 331.315 174.778L331.429 174.55C331.657 170.522 332.303 167.216 333.367 164.632C334.431 162.048 336.597 160.756 339.865 160.756C341.765 161.06 343.209 161.972 344.197 163.492C345.261 165.012 345.793 166.836 345.793 168.964C345.793 170.636 345.451 172.194 344.767 173.638C344.083 175.082 343.095 176.222 341.803 177.058C339.295 179.034 336.027 181.2 331.999 183.556C328.731 185.532 325.957 187.318 323.677 188.914C321.473 190.434 319.421 192.296 317.521 194.5C315.925 197.008 314.937 199.706 314.557 202.594C314.177 205.406 313.949 209.206 313.873 213.994C313.873 216.882 313.759 219.808 313.531 222.772C313.531 222.924 313.569 223.038 313.645 223.114H362.095L362.551 222.43Z" fill="#FF7C7C"/>
<path d="M365.971 224.368H367.971V223.896L367.76 223.474L365.971 224.368ZM365.629 225.736L364.52 224.072L364.355 224.182L364.215 224.322L365.629 225.736ZM364.375 225.964V223.964H364.362L364.349 223.964L364.375 225.964ZM321.055 226.534V228.534H321.068L321.082 228.534L321.055 226.534ZM315.469 226.534L314.055 227.948L314.641 228.534H315.469V226.534ZM314.671 224.254H316.671V222.254H314.671V224.254ZM313.189 224.254L311.775 225.668L312.361 226.254H313.189V224.254ZM312.391 222.772L310.398 222.615L310.391 222.693V222.772H312.391ZM312.733 214.45L310.734 214.419L310.733 214.435V214.45H312.733ZM313.531 202.594L315.508 202.898L315.509 202.891L313.531 202.594ZM316.837 193.588L315.353 192.247L315.217 192.398L315.115 192.572L316.837 193.588ZM323.563 187.546L324.721 189.177L324.731 189.17L323.563 187.546ZM332.797 181.504L331.79 179.776L331.771 179.787L331.753 179.798L332.797 181.504ZM341.119 176.146L339.919 174.546L339.909 174.554L341.119 176.146ZM342.031 164.176L342.439 162.218L342.237 162.176H342.031V164.176ZM336.445 168.166L334.57 167.47L334.57 167.47L336.445 168.166ZM334.621 178.084L334.944 180.058L336.526 179.8L336.618 178.199L334.621 178.084ZM315.583 178.312L313.622 178.704L313.868 179.931L315.078 180.247L315.583 178.312ZM315.127 176.944L313.23 177.576L313.379 178.024L313.713 178.358L315.127 176.944ZM314.443 176.488L313.701 178.345L313.871 178.413L314.051 178.449L314.443 176.488ZM313.303 176.032L311.342 176.424L311.555 177.487L312.561 177.889L313.303 176.032ZM319.117 147.988H321.117V142.803L317.635 146.645L319.117 147.988ZM319.117 148.102H317.117V154.054L320.712 149.31L319.117 148.102ZM327.553 142.63L328.139 144.542L328.151 144.539L328.163 144.535L327.553 142.63ZM354.457 144.112L355.404 142.35L355.404 142.35L354.457 144.112ZM363.919 153.46L362.165 154.42L362.172 154.433L362.179 154.445L363.919 153.46ZM367.339 167.368H365.339V167.387L365.34 167.406L367.339 167.368ZM367.453 173.41H369.453V173.391L369.453 173.372L367.453 173.41ZM364.945 183.328L363.252 182.264L363.241 182.281L363.23 182.299L364.945 183.328ZM359.017 189.712L360.127 191.376L360.133 191.372L360.139 191.368L359.017 189.712ZM349.783 194.842L350.66 196.64L350.664 196.638L349.783 194.842ZM342.373 198.832L343.413 200.54L343.423 200.534L343.433 200.528L342.373 198.832ZM337.927 202.708L336.366 201.459L336.062 201.839L335.966 202.316L337.927 202.708ZM337.357 204.076L335.621 203.084L335.564 203.183L335.519 203.288L337.357 204.076ZM336.787 205.672L334.864 205.123L334.136 207.672H336.787V205.672ZM340.891 205.672V207.672H340.902L340.913 207.672L340.891 205.672ZM351.265 205.558L351.287 207.558L351.309 207.558L351.33 207.557L351.265 205.558ZM362.323 205.33L364.144 204.502L363.611 203.33H362.323V205.33ZM363.007 207.61L361.02 207.831L361.217 209.61H363.007V207.61ZM364.603 207.61L366.481 206.921L366 205.61H364.603V207.61ZM365.857 214.678L367.856 214.74L367.857 214.709V214.678H365.857ZM365.743 218.326L363.744 218.264L363.743 218.295V218.326H365.743ZM362.551 222.43L364.215 223.539L364.72 222.782L364.481 221.904L362.551 222.43ZM362.323 216.388L364.315 216.569L364.32 216.51L364.322 216.45L362.323 216.388ZM362.437 212.74L364.436 212.802L364.437 212.771V212.74H362.437ZM361.525 206.47L363.353 205.658L362.825 204.47H361.525V206.47ZM348.985 206.698L348.928 204.699L348.927 204.699L348.985 206.698ZM334.735 200.086L336.326 201.298L336.326 201.298L334.735 200.086ZM338.953 196.21L340.006 197.911L340.035 197.893L340.063 197.874L338.953 196.21ZM345.565 192.448L344.658 190.666L344.652 190.669L345.565 192.448ZM351.835 189.256L350.941 187.467L350.934 187.47L350.928 187.474L351.835 189.256ZM360.727 182.302L359.153 181.068L359.149 181.074L360.727 182.302ZM362.209 155.968L360.28 156.494L360.284 156.51L360.289 156.527L362.209 155.968ZM355.255 145.822L356.444 144.214L356.444 144.214L355.255 145.822ZM320.143 148.786L321.582 150.176L321.588 150.17L321.593 150.163L320.143 148.786ZM314.329 175.12L312.362 175.478L312.413 175.759L312.54 176.014L314.329 175.12ZM314.443 175.348L312.654 176.242L313.127 177.187L314.173 177.33L314.443 175.348ZM331.315 174.778L331.563 176.763L332.625 176.63L333.104 175.672L331.315 174.778ZM331.429 174.55L333.218 175.444L333.403 175.075L333.426 174.663L331.429 174.55ZM333.367 164.632L331.518 163.87L331.518 163.87L333.367 164.632ZM339.865 160.756L340.181 158.781L340.024 158.756H339.865V160.756ZM344.197 163.492L342.52 164.582L342.539 164.611L342.559 164.639L344.197 163.492ZM341.803 177.058L340.717 175.379L340.639 175.429L340.566 175.487L341.803 177.058ZM331.999 183.556L330.99 181.83L330.977 181.837L330.964 181.845L331.999 183.556ZM323.677 188.914L324.813 190.56L324.824 190.552L323.677 188.914ZM317.521 194.5L316.007 193.194L315.912 193.304L315.834 193.426L317.521 194.5ZM314.557 202.594L316.539 202.862L316.54 202.855L314.557 202.594ZM313.873 213.994L311.874 213.962L311.873 213.978V213.994H313.873ZM313.531 222.772L311.537 222.619L311.531 222.695V222.772H313.531ZM313.645 223.114L312.231 224.528L312.817 225.114H313.645V223.114ZM362.095 223.114V225.114H363.166L363.759 224.223L362.095 223.114ZM363.743 223.114C363.743 223.798 363.835 224.567 364.182 225.262L367.76 223.474C367.787 223.527 367.78 223.536 367.768 223.469C367.756 223.403 367.743 223.289 367.743 223.114H363.743ZM363.971 224.368C363.971 224.51 363.966 224.617 363.959 224.694C363.951 224.774 363.944 224.803 363.946 224.795C363.946 224.792 363.967 224.707 364.036 224.584C364.107 224.459 364.253 224.25 364.52 224.072L366.739 227.4C367.476 226.909 367.728 226.158 367.826 225.765C367.939 225.312 367.971 224.824 367.971 224.368H363.971ZM364.215 224.322C364.328 224.209 364.436 224.132 364.52 224.081C364.604 224.03 364.675 223.998 364.723 223.979C364.813 223.943 364.863 223.936 364.844 223.939C364.83 223.942 364.785 223.949 364.701 223.954C364.618 223.96 364.511 223.964 364.375 223.964V227.964C364.774 227.964 365.184 227.943 365.56 227.875C365.843 227.823 366.511 227.682 367.044 227.15L364.215 224.322ZM364.349 223.964L321.029 224.534L321.082 228.534L364.402 227.964L364.349 223.964ZM321.055 224.534H315.469V228.534H321.055V224.534ZM316.884 225.12C316.8 225.037 316.741 224.968 316.699 224.914C316.657 224.861 316.638 224.828 316.632 224.816C316.62 224.794 316.671 224.881 316.671 225.052H312.671C312.671 226.294 313.38 227.273 314.055 227.948L316.884 225.12ZM316.671 225.052V224.254H312.671V225.052H316.671ZM314.671 222.254H313.189V226.254H314.671V222.254ZM314.604 222.84C314.52 222.757 314.461 222.688 314.419 222.634C314.377 222.581 314.358 222.548 314.352 222.536C314.34 222.514 314.391 222.601 314.391 222.772H310.391C310.391 224.014 311.1 224.993 311.775 225.668L314.604 222.84ZM314.385 222.929C314.617 219.994 314.733 217.167 314.733 214.45H310.733C310.733 217.053 310.622 219.774 310.398 222.615L314.385 222.929ZM314.733 214.481C314.808 209.582 315.072 205.733 315.508 202.898L311.555 202.29C311.079 205.383 310.81 209.438 310.734 214.419L314.733 214.481ZM315.509 202.891C315.923 200.133 316.927 197.373 318.56 194.604L315.115 192.572C313.252 195.731 312.052 198.975 311.553 202.297L315.509 202.891ZM318.322 194.929C320.361 192.67 322.495 190.757 324.721 189.177L322.406 185.915C319.92 187.679 317.57 189.794 315.353 192.247L318.322 194.929ZM324.731 189.17C327.109 187.46 330.142 185.474 333.842 183.21L331.753 179.798C328.004 182.094 324.882 184.136 322.396 185.922L324.731 189.17ZM333.805 183.232C337.479 181.089 340.334 179.255 342.329 177.738L339.909 174.554C338.105 175.925 335.412 177.663 331.79 179.776L333.805 183.232ZM342.319 177.746C345.24 175.556 346.767 172.576 346.767 168.964H342.767C342.767 171.28 341.863 173.088 339.919 174.546L342.319 177.746ZM346.767 168.964C346.767 167.379 346.517 165.885 345.82 164.666C345.075 163.363 343.903 162.523 342.439 162.218L341.623 166.134C341.983 166.209 342.179 166.357 342.347 166.65C342.562 167.027 342.767 167.737 342.767 168.964H346.767ZM342.031 162.176C340.33 162.176 338.753 162.594 337.42 163.546C336.094 164.494 335.17 165.856 334.57 167.47L338.32 168.862C338.709 167.816 339.21 167.183 339.745 166.801C340.275 166.423 340.997 166.176 342.031 166.176V162.176ZM334.57 167.47C333.492 170.374 332.86 173.89 332.625 177.969L336.618 178.199C336.839 174.374 337.423 171.278 338.32 168.862L334.57 167.47ZM334.299 176.11C330.718 176.695 326.199 176.996 320.713 176.996V180.996C326.324 180.996 331.076 180.689 334.944 180.058L334.299 176.11ZM320.713 176.996C319.225 176.996 317.684 176.793 316.088 176.377L315.078 180.247C316.978 180.743 318.858 180.996 320.713 180.996V176.996ZM317.544 177.92C317.461 177.501 317.366 177.107 317.253 176.768C317.171 176.523 316.978 175.966 316.542 175.53L313.713 178.358C313.618 178.263 313.555 178.177 313.52 178.125C313.484 178.07 313.462 178.029 313.452 178.009C313.435 177.974 313.439 177.975 313.458 178.032C313.497 178.149 313.554 178.363 313.622 178.704L317.544 177.92ZM317.025 176.312C316.606 175.054 315.464 174.653 314.836 174.527L314.051 178.449C314.083 178.456 313.963 178.439 313.79 178.323C313.588 178.189 313.352 177.943 313.23 177.576L317.025 176.312ZM315.186 174.631C314.806 174.479 314.426 174.327 314.046 174.175L312.561 177.889C312.941 178.041 313.321 178.193 313.701 178.345L315.186 174.631ZM315.264 175.64C314.76 173.117 314.505 170.475 314.505 167.71H310.505C310.505 170.721 310.783 173.627 311.342 176.424L315.264 175.64ZM314.505 167.71C314.505 159.788 316.605 153.738 320.599 149.331L317.635 146.645C312.813 151.966 310.505 159.064 310.505 167.71H314.505ZM317.117 147.988V148.102H321.117V147.988H317.117ZM320.712 149.31C322.303 147.209 324.72 145.589 328.139 144.542L326.968 140.718C322.939 141.951 319.732 143.979 317.523 146.894L320.712 149.31ZM328.163 144.535C331.743 143.389 335.677 142.806 339.979 142.806V138.806C335.314 138.806 330.964 139.439 326.944 140.725L328.163 144.535ZM339.979 142.806C345.26 142.806 349.749 143.854 353.511 145.874L355.404 142.35C350.958 139.962 345.795 138.806 339.979 138.806V142.806ZM353.511 145.874C357.279 147.897 360.15 150.737 362.165 154.42L365.674 152.5C363.281 148.127 359.844 144.735 355.404 142.35L353.511 145.874ZM362.179 154.445C364.267 158.135 365.339 162.423 365.339 167.368H369.339C369.339 161.825 368.132 156.841 365.66 152.475L362.179 154.445ZM365.34 167.406L365.454 173.448L369.453 173.372L369.339 167.33L365.34 167.406ZM365.453 173.41C365.453 177.082 364.678 179.995 363.252 182.264L366.639 184.392C368.557 181.341 369.453 177.642 369.453 173.41H365.453ZM363.23 182.299C361.77 184.732 359.99 186.638 357.896 188.056L360.139 191.368C362.757 189.594 364.928 187.244 366.66 184.357L363.23 182.299ZM357.908 188.048C355.731 189.5 352.739 191.166 348.903 193.046L350.664 196.638C354.579 194.718 357.744 192.964 360.127 191.376L357.908 188.048ZM348.906 193.044C345.761 194.579 343.221 195.944 341.313 197.136L343.433 200.528C345.174 199.44 347.574 198.145 350.66 196.64L348.906 193.044ZM341.333 197.124C339.396 198.303 337.735 199.747 336.366 201.459L339.489 203.957C340.552 202.629 341.854 201.489 343.413 200.54L341.333 197.124ZM335.966 202.316C335.949 202.399 335.873 202.643 335.621 203.084L339.094 205.068C339.45 204.445 339.753 203.777 339.888 203.1L335.966 202.316ZM335.519 203.288C335.259 203.894 335.041 204.506 334.864 205.123L338.71 206.221C338.838 205.774 338.999 205.322 339.196 204.864L335.519 203.288ZM336.787 207.672H340.891V203.672H336.787V207.672ZM340.913 207.672L351.287 207.558L351.243 203.558L340.869 203.672L340.913 207.672ZM351.33 207.557C356.034 207.405 359.695 207.33 362.323 207.33V203.33C359.632 203.33 355.921 203.407 351.201 203.559L351.33 207.557ZM360.503 206.158C360.823 206.862 360.973 207.413 361.02 207.831L364.995 207.389C364.889 206.439 364.584 205.47 364.144 204.502L360.503 206.158ZM363.007 209.61H364.603V205.61H363.007V209.61ZM362.726 208.299C363.481 210.358 363.857 212.481 363.857 214.678H367.857C367.857 212.011 367.398 209.422 366.481 206.921L362.726 208.299ZM363.858 214.616L363.744 218.264L367.742 218.388L367.856 214.74L363.858 214.616ZM363.743 218.326V222.316H367.743V218.326H363.743ZM363.743 222.316V223.114H367.743V222.316H363.743ZM364.481 221.904C364.298 221.233 364.209 220.574 364.209 219.922H360.209C360.209 220.942 360.349 221.955 360.622 222.956L364.481 221.904ZM364.209 219.922C364.209 218.422 364.247 217.315 364.315 216.569L360.332 216.207C360.247 217.133 360.209 218.382 360.209 219.922H364.209ZM364.322 216.45L364.436 212.802L360.438 212.678L360.324 216.326L364.322 216.45ZM364.437 212.74C364.437 209.851 364.135 207.418 363.353 205.658L359.698 207.282C360.131 208.258 360.437 210.005 360.437 212.74H364.437ZM361.525 204.47C358.457 204.47 354.255 204.547 348.928 204.699L349.042 208.697C354.355 208.545 358.513 208.47 361.525 208.47V204.47ZM348.927 204.699C343.765 204.851 339.798 204.926 337.015 204.926V208.926C339.857 208.926 343.87 208.849 349.044 208.697L348.927 204.699ZM337.015 204.926C335.694 204.926 334.888 204.829 334.473 204.714C334.26 204.655 334.31 204.633 334.448 204.748C334.646 204.913 334.911 205.278 334.911 205.786H330.911C330.911 206.674 331.347 207.371 331.887 207.821C332.368 208.221 332.931 208.437 333.402 208.568C334.354 208.833 335.601 208.926 337.015 208.926V204.926ZM334.911 205.786C334.911 203.974 335.402 202.511 336.326 201.298L333.144 198.874C331.637 200.853 330.911 203.19 330.911 205.786H334.911ZM336.326 201.298C337.404 199.883 338.632 198.761 340.006 197.911L337.901 194.509C336.083 195.635 334.498 197.097 333.144 198.874L336.326 201.298ZM340.063 197.874C341.569 196.87 343.697 195.656 346.479 194.227L344.652 190.669C341.809 192.128 339.53 193.422 337.844 194.546L340.063 197.874ZM346.473 194.23L352.743 191.038L350.928 187.474L344.658 190.666L346.473 194.23ZM352.73 191.045C356.738 189.041 359.958 186.549 362.306 183.53L359.149 181.074C357.241 183.527 354.533 185.671 350.941 187.467L352.73 191.045ZM362.301 183.536C364.841 180.296 366.033 176.22 366.033 171.472H362.033C362.033 175.54 361.022 178.684 359.153 181.068L362.301 183.536ZM366.033 171.472C366.033 165.198 365.415 159.829 364.13 155.409L360.289 156.527C361.435 160.467 362.033 165.434 362.033 171.472H366.033ZM364.139 155.442C362.88 150.826 360.3 147.064 356.444 144.214L354.067 147.43C357.202 149.748 359.259 152.75 360.28 156.494L364.139 155.442ZM356.444 144.214C352.463 141.271 346.879 139.946 339.979 139.946V143.946C346.456 143.946 351.055 145.205 354.067 147.43L356.444 144.214ZM339.979 139.946C330.77 139.946 323.537 142.31 318.693 147.408L321.593 150.163C325.414 146.142 331.404 143.946 339.979 143.946V139.946ZM318.705 147.396C313.913 152.356 311.645 159.223 311.645 167.71H315.645C315.645 159.933 317.709 154.184 321.582 150.176L318.705 147.396ZM311.645 167.71C311.645 170.268 311.885 172.857 312.362 175.478L316.297 174.762C315.862 172.367 315.645 170.016 315.645 167.71H311.645ZM312.54 176.014L312.654 176.242L316.232 174.454L316.118 174.226L312.54 176.014ZM314.173 177.33C315.942 177.571 317.78 177.69 319.687 177.69V173.69C317.947 173.69 316.289 173.581 314.714 173.366L314.173 177.33ZM319.687 177.69C322.696 177.69 326.665 177.375 331.563 176.763L331.067 172.793C326.237 173.397 322.455 173.69 319.687 173.69V177.69ZM333.104 175.672L333.218 175.444L329.64 173.656L329.526 173.884L333.104 175.672ZM333.426 174.663C333.647 170.768 334.266 167.702 335.217 165.393L331.518 163.87C330.34 166.73 329.668 170.276 329.433 174.437L333.426 174.663ZM335.217 165.393C335.603 164.455 336.142 163.843 336.814 163.443C337.509 163.028 338.488 162.756 339.865 162.756V158.756C337.975 158.756 336.237 159.13 334.765 160.007C333.271 160.899 332.196 162.225 331.518 163.87L335.217 165.393ZM339.549 162.731C340.93 162.952 341.861 163.568 342.52 164.582L345.874 162.402C344.557 160.376 342.601 159.168 340.181 158.781L339.549 162.731ZM342.559 164.639C343.354 165.775 343.793 167.184 343.793 168.964H347.793C347.793 166.488 347.169 164.249 345.836 162.345L342.559 164.639ZM343.793 168.964C343.793 170.354 343.511 171.618 342.96 172.782L346.575 174.494C347.391 172.77 347.793 170.918 347.793 168.964H343.793ZM342.96 172.782C342.429 173.903 341.684 174.753 340.717 175.379L342.89 178.737C344.506 177.691 345.738 176.261 346.575 174.494L342.96 172.782ZM340.566 175.487C338.155 177.387 334.971 179.501 330.99 181.83L333.009 185.282C337.084 182.899 340.436 180.681 343.041 178.629L340.566 175.487ZM330.964 181.845C327.671 183.836 324.858 185.647 322.53 187.276L324.824 190.552C327.057 188.989 329.791 187.228 333.034 185.267L330.964 181.845ZM322.542 187.268C320.186 188.892 318.008 190.872 316.007 193.194L319.036 195.806C320.834 193.72 322.761 191.976 324.813 190.56L322.542 187.268ZM315.834 193.426C314.085 196.175 312.993 199.15 312.574 202.333L316.54 202.855C316.881 200.262 317.766 197.841 319.209 195.574L315.834 193.426ZM312.575 202.326C312.18 205.251 311.95 209.141 311.874 213.962L315.873 214.026C315.949 209.271 316.175 205.561 316.539 202.862L312.575 202.326ZM311.873 213.994C311.873 216.829 311.761 219.704 311.537 222.619L315.525 222.925C315.757 219.912 315.873 216.935 315.873 213.994H311.873ZM311.531 222.772C311.531 223.232 311.648 223.945 312.231 224.528L315.06 221.7C315.491 222.131 315.531 222.616 315.531 222.772H311.531ZM313.645 225.114H362.095V221.114H313.645V225.114ZM363.759 224.223L364.215 223.539L360.887 221.321L360.431 222.005L363.759 224.223Z" fill="#917171"/>
</g>
<g id="K">
<path d="M283.303 375H302.383L347.923 313.62L361.063 325.14V375H377.263V246.48H361.063V309.84C357.463 305.76 353.803 301.68 350.083 297.6C346.363 293.52 342.643 289.44 338.923 285.36L304.183 246.48H285.283L336.223 302.46L283.303 375Z" fill="#FF7C7C"/>
<path d="M283.303 375V377H279.368L281.687 373.821L283.303 375ZM302.383 375L303.989 376.192L303.389 377H302.383V375ZM347.923 313.62L346.316 312.428L347.609 310.686L349.241 312.116L347.923 313.62ZM361.063 325.14L362.381 323.636L363.063 324.234V325.14H361.063ZM361.063 375V377H359.063V375H361.063ZM377.263 375H379.263V377H377.263V375ZM377.263 246.48V244.48H379.263V246.48H377.263ZM361.063 246.48H359.063V244.48H361.063V246.48ZM361.063 309.84H363.063V315.13L359.563 311.163L361.063 309.84ZM350.083 297.6L348.605 298.948L348.605 298.948L350.083 297.6ZM338.923 285.36L337.445 286.708L337.438 286.7L337.431 286.693L338.923 285.36ZM304.183 246.48V244.48H305.078L305.674 245.147L304.183 246.48ZM285.283 246.48L283.803 247.826L280.759 244.48H285.283V246.48ZM336.223 302.46L337.702 301.114L338.8 302.321L337.838 303.639L336.223 302.46ZM283.303 373H302.383V377H283.303V373ZM300.776 373.808L346.316 312.428L349.529 314.812L303.989 376.192L300.776 373.808ZM349.241 312.116L362.381 323.636L359.744 326.644L346.604 315.124L349.241 312.116ZM363.063 325.14V375H359.063V325.14H363.063ZM361.063 373H377.263V377H361.063V373ZM375.263 375V246.48H379.263V375H375.263ZM377.263 248.48H361.063V244.48H377.263V248.48ZM363.063 246.48V309.84H359.063V246.48H363.063ZM359.563 311.163C355.97 307.092 352.318 303.02 348.605 298.948L351.561 296.252C355.288 300.34 358.955 304.428 362.562 308.517L359.563 311.163ZM348.605 298.948C344.885 294.868 341.165 290.788 337.445 286.708L340.401 284.012C344.121 288.092 347.841 292.172 351.561 296.252L348.605 298.948ZM337.431 286.693L302.691 247.813L305.674 245.147L340.414 284.027L337.431 286.693ZM304.183 248.48H285.283V244.48H304.183V248.48ZM286.762 245.134L337.702 301.114L334.743 303.806L283.803 247.826L286.762 245.134ZM337.838 303.639L284.918 376.179L281.687 373.821L334.607 301.281L337.838 303.639Z" fill="#917171"/>
</g>
</g>
</g>
<defs>
<filter id="filter0_iii" x="-1" y="-1" width="518" height="518" filterUnits="userSpaceOnUse" color-interpolation-filters="sRGB">
<feFlood flood-opacity="0" result="BackgroundImageFix"/>
<feBlend mode="normal" in="SourceGraphic" in2="BackgroundImageFix" result="shape"/>
<feColorMatrix in="SourceAlpha" type="matrix" values="0 0 0 0 0 0 0 0 0 0 0 0 0 0 0 0 0 0 127 0" result="hardAlpha"/>
<feOffset dx="16" dy="16"/>
<feComposite in2="hardAlpha" operator="arithmetic" k2="-1" k3="1"/>
<feColorMatrix type="matrix" values="0 0 0 0 0.216667 0 0 0 0 0.216667 0 0 0 0 0.216667 0 0 0 0.6 0"/>
<feBlend mode="normal" in2="shape" result="effect1_innerShadow"/>
<feColorMatrix in="SourceAlpha" type="matrix" values="0 0 0 0 0 0 0 0 0 0 0 0 0 0 0 0 0 0 127 0" result="hardAlpha"/>
<feMorphology radius="1" operator="erode" in="SourceAlpha" result="effect2_innerShadow"/>
<feOffset dx="-16" dy="-16"/>
<feComposite in2="hardAlpha" operator="arithmetic" k2="-1" k3="1"/>
<feColorMatrix type="matrix" values="0 0 0 0 0.279167 0 0 0 0 0.279167 0 0 0 0 0.279167 0 0 0 0.6 0"/>
<feBlend mode="normal" in2="effect1_innerShadow" result="effect2_innerShadow"/>
<feColorMatrix in="SourceAlpha" type="matrix" values="0 0 0 0 0 0 0 0 0 0 0 0 0 0 0 0 0 0 127 0" result="hardAlpha"/>
<feOffset dx="73" dy="92"/>
<feGaussianBlur stdDeviation="2.5"/>
<feComposite in2="hardAlpha" operator="arithmetic" k2="-1" k3="1"/>
<feColorMatrix type="matrix" values="0 0 0 0 0.225 0 0 0 0 0.225 0 0 0 0 0.225 0 0 0 0.2 0"/>
<feBlend mode="normal" in2="effect2_innerShadow" result="effect3_innerShadow"/>
</filter>
<filter id="filter1_d" x="120.95" y="125.1" width="300.465" height="261.9" filterUnits="userSpaceOnUse" color-interpolation-filters="sRGB">
<feFlood flood-opacity="0" result="BackgroundImageFix"/>
<feColorMatrix in="SourceAlpha" type="matrix" values="0 0 0 0 0 0 0 0 0 0 0 0 0 0 0 0 0 0 127 0" result="hardAlpha"/>
<feOffset dy="4"/>
<feGaussianBlur stdDeviation="2"/>
<feComposite in2="hardAlpha" operator="out"/>
<feColorMatrix type="matrix" values="0 0 0 0 0 0 0 0 0 0 0 0 0 0 0 0 0 0 0.5 0"/>
<feBlend mode="normal" in2="BackgroundImageFix" result="effect1_dropShadow"/>
<feBlend mode="normal" in="SourceGraphic" in2="effect1_dropShadow" result="shape"/>
</filter>
</defs>
</svg>
